{
    "asset" : {
        "generator" : "Khronos glTF Blender I/O v1.6.16",
        "version" : "2.0"
    },
    "scene" : 0,
    "scenes" : [
        {
            "name" : "Scene",
            "nodes" : [
                0,
                1,
                2,
                3,
                4,
                5,
                6,
                7
            ]
        }
    ],
    "nodes" : [
        {
            "mesh" : 0,
            "name" : "Plane",
            "scale" : [
                3,
                3,
                3
            ],
            "translation" : [
                0,
                -1,
                0
            ]
        },
        {
            "mesh" : 1,
            "name" : "Cube",
            "translation" : [
                4,
                0,
                -4
            ]
        },
        {
            "mesh" : 2,
            "name" : "Sphere",
            "translation" : [
                4,
                0,
                0
            ]
        },
        {
            "mesh" : 3,
            "name" : "Icosphere",
            "translation" : [
                -4,
                0,
                0
            ]
        },
        {
            "mesh" : 4,
            "name" : "Cylinder",
            "translation" : [
                0,
                0,
                -4
            ]
        },
        {
            "mesh" : 5,
            "name" : "Cone",
            "translation" : [
                -4,
                0,
                -4
            ]
        },
        {
            "mesh" : 6,
            "name" : "Torus.003"
        },
        {
            "mesh" : 7,
            "name" : "Suzanne",
            "translation" : [
                0,
                0,
                4
            ]
        }
    ],
    "materials" : [
        {
            "doubleSided" : true,
            "name" : "White",
            "pbrMetallicRoughness" : {
                "metallicFactor" : 0,
                "roughnessFactor" : 0.5
            }
        },
        {
            "doubleSided" : true,
            "name" : "Red",
            "pbrMetallicRoughness" : {
                "baseColorFactor" : [
                    1,
                    0,
                    0,
                    1
                ],
                "metallicFactor" : 0,
                "roughnessFactor" : 0.5
            }
        }
    ],
    "meshes" : [
        {
            "name" : "Plane.003",
            "primitives" : [
                {
                    "attributes" : {
                        "POSITION" : 0,
                        "NORMAL" : 1,
                        "TANGENT" : 2,
                        "TEXCOORD_0" : 3
                    },
                    "indices" : 4,
                    "material" : 0
                }
            ]
        },
        {
            "name" : "Cube.004",
            "primitives" : [
                {
                    "attributes" : {
                        "POSITION" : 5,
                        "NORMAL" : 6,
                        "TANGENT" : 7,
                        "TEXCOORD_0" : 8
                    },
                    "indices" : 9,
                    "material" : 0
                }
            ]
        },
        {
            "name" : "Sphere.001",
            "primitives" : [
                {
                    "attributes" : {
                        "POSITION" : 10,
                        "NORMAL" : 11,
                        "TANGENT" : 12,
                        "TEXCOORD_0" : 13
                    },
                    "indices" : 14,
                    "material" : 0
                }
            ]
        },
        {
            "name" : "Icosphere.001",
            "primitives" : [
                {
                    "attributes" : {
                        "POSITION" : 15,
                        "NORMAL" : 16,
                        "TANGENT" : 17,
                        "TEXCOORD_0" : 18
                    },
                    "indices" : 19,
                    "material" : 0
                }
            ]
        },
        {
            "name" : "Cylinder.001",
            "primitives" : [
                {
                    "attributes" : {
                        "POSITION" : 20,
                        "NORMAL" : 21,
                        "TEXCOORD_0" : 22
                    },
                    "indices" : 23,
                    "material" : 0
                }
            ]
        },
        {
            "name" : "Cone.001",
            "primitives" : [
                {
                    "attributes" : {
                        "POSITION" : 24,
                        "NORMAL" : 25,
                        "TEXCOORD_0" : 26
                    },
                    "indices" : 27,
                    "material" : 0
                }
            ]
        },
        {
            "name" : "Torus.003",
            "primitives" : [
                {
                    "attributes" : {
                        "POSITION" : 28,
                        "NORMAL" : 29,
                        "TANGENT" : 30,
                        "TEXCOORD_0" : 31
                    },
                    "indices" : 32,
                    "material" : 0
                }
            ]
        },
        {
            "name" : "Suzanne",
            "primitives" : [
                {
                    "attributes" : {
                        "POSITION" : 33,
                        "NORMAL" : 34,
                        "TANGENT" : 35,
                        "TEXCOORD_0" : 36
                    },
                    "indices" : 37,
                    "material" : 1
                }
            ]
        }
    ],
    "accessors" : [
        {
            "bufferView" : 0,
            "componentType" : 5126,
            "count" : 4,
            "max" : [
                2,
                0,
                2
            ],
            "min" : [
                -2,
                0,
                -2
            ],
            "type" : "VEC3"
        },
        {
            "bufferView" : 1,
            "componentType" : 5126,
            "count" : 4,
            "type" : "VEC3"
        },
        {
            "bufferView" : 2,
            "componentType" : 5126,
            "count" : 4,
            "type" : "VEC4"
        },
        {
            "bufferView" : 3,
            "componentType" : 5126,
            "count" : 4,
            "type" : "VEC2"
        },
        {
            "bufferView" : 4,
            "componentType" : 5123,
            "count" : 6,
            "type" : "SCALAR"
        },
        {
            "bufferView" : 5,
            "componentType" : 5126,
            "count" : 24,
            "max" : [
                1,
                1,
                1
            ],
            "min" : [
                -1,
                -1,
                -1
            ],
            "type" : "VEC3"
        },
        {
            "bufferView" : 6,
            "componentType" : 5126,
            "count" : 24,
            "type" : "VEC3"
        },
        {
            "bufferView" : 7,
            "componentType" : 5126,
            "count" : 24,
            "type" : "VEC4"
        },
        {
            "bufferView" : 8,
            "componentType" : 5126,
            "count" : 24,
            "type" : "VEC2"
        },
        {
            "bufferView" : 9,
            "componentType" : 5123,
            "count" : 36,
            "type" : "SCALAR"
        },
        {
            "bufferView" : 10,
            "componentType" : 5126,
            "count" : 1984,
            "max" : [
                0.9999997019767761,
                1,
                0.9999994039535522
            ],
            "min" : [
                -0.9999990463256836,
                -1,
                -0.9999987483024597
            ],
            "type" : "VEC3"
        },
        {
            "bufferView" : 11,
            "componentType" : 5126,
            "count" : 1984,
            "type" : "VEC3"
        },
        {
            "bufferView" : 12,
            "componentType" : 5126,
            "count" : 1984,
            "type" : "VEC4"
        },
        {
            "bufferView" : 13,
            "componentType" : 5126,
            "count" : 1984,
            "type" : "VEC2"
        },
        {
            "bufferView" : 14,
            "componentType" : 5123,
            "count" : 2880,
            "type" : "SCALAR"
        },
        {
            "bufferView" : 15,
            "componentType" : 5126,
            "count" : 240,
            "max" : [
                0.9510578513145447,
                1,
                0.9999999403953552
            ],
            "min" : [
                -0.9510578513145447,
                -1,
                -0.9999999403953552
            ],
            "type" : "VEC3"
        },
        {
            "bufferView" : 16,
            "componentType" : 5126,
            "count" : 240,
            "type" : "VEC3"
        },
        {
            "bufferView" : 17,
            "componentType" : 5126,
            "count" : 240,
            "type" : "VEC4"
        },
        {
            "bufferView" : 18,
            "componentType" : 5126,
            "count" : 240,
            "type" : "VEC2"
        },
        {
            "bufferView" : 19,
            "componentType" : 5123,
            "count" : 240,
            "type" : "SCALAR"
        },
        {
            "bufferView" : 20,
            "componentType" : 5126,
            "count" : 192,
            "max" : [
                1,
                1,
                1
            ],
            "min" : [
                -1,
                -1,
                -1
            ],
            "type" : "VEC3"
        },
        {
            "bufferView" : 21,
            "componentType" : 5126,
            "count" : 192,
            "type" : "VEC3"
        },
        {
            "bufferView" : 22,
            "componentType" : 5126,
            "count" : 192,
            "type" : "VEC2"
        },
        {
            "bufferView" : 23,
            "componentType" : 5123,
            "count" : 372,
            "type" : "SCALAR"
        },
        {
            "bufferView" : 24,
            "componentType" : 5126,
            "count" : 128,
            "max" : [
                1,
                1,
                1
            ],
            "min" : [
                -1,
                -1,
                -1
            ],
            "type" : "VEC3"
        },
        {
            "bufferView" : 25,
            "componentType" : 5126,
            "count" : 128,
            "type" : "VEC3"
        },
        {
            "bufferView" : 26,
            "componentType" : 5126,
            "count" : 128,
            "type" : "VEC2"
        },
        {
            "bufferView" : 27,
            "componentType" : 5123,
            "count" : 186,
            "type" : "SCALAR"
        },
        {
            "bufferView" : 28,
            "componentType" : 5126,
            "count" : 2304,
            "max" : [
                1.25,
                0.25,
                1.25
            ],
            "min" : [
                -1.25,
                -0.25,
                -1.25
            ],
            "type" : "VEC3"
        },
        {
            "bufferView" : 29,
            "componentType" : 5126,
            "count" : 2304,
            "type" : "VEC3"
        },
        {
            "bufferView" : 30,
            "componentType" : 5126,
            "count" : 2304,
            "type" : "VEC4"
        },
        {
            "bufferView" : 31,
            "componentType" : 5126,
            "count" : 2304,
            "type" : "VEC2"
        },
        {
            "bufferView" : 32,
            "componentType" : 5123,
            "count" : 3456,
            "type" : "SCALAR"
        },
        {
            "bufferView" : 33,
            "componentType" : 5126,
            "count" : 1966,
            "max" : [
                1.3671875,
                0.984375,
                0.8515625
            ],
            "min" : [
                -1.3671875,
                -0.984375,
                -0.8515625
            ],
            "type" : "VEC3"
        },
        {
            "bufferView" : 34,
            "componentType" : 5126,
            "count" : 1966,
            "type" : "VEC3"
        },
        {
            "bufferView" : 35,
            "componentType" : 5126,
            "count" : 1966,
            "type" : "VEC4"
        },
        {
            "bufferView" : 36,
            "componentType" : 5126,
            "count" : 1966,
            "type" : "VEC2"
        },
        {
            "bufferView" : 37,
            "componentType" : 5123,
            "count" : 2904,
            "type" : "SCALAR"
        }
    ],
    "bufferViews" : [
        {
            "buffer" : 0,
            "byteLength" : 48,
            "byteOffset" : 0
        },
        {
            "buffer" : 0,
            "byteLength" : 48,
            "byteOffset" : 48
        },
        {
            "buffer" : 0,
            "byteLength" : 64,
            "byteOffset" : 96
        },
        {
            "buffer" : 0,
            "byteLength" : 32,
            "byteOffset" : 160
        },
        {
            "buffer" : 0,
            "byteLength" : 12,
            "byteOffset" : 192
        },
        {
            "buffer" : 0,
            "byteLength" : 288,
            "byteOffset" : 204
        },
        {
            "buffer" : 0,
            "byteLength" : 288,
            "byteOffset" : 492
        },
        {
            "buffer" : 0,
            "byteLength" : 384,
            "byteOffset" : 780
        },
        {
            "buffer" : 0,
            "byteLength" : 192,
            "byteOffset" : 1164
        },
        {
            "buffer" : 0,
            "byteLength" : 72,
            "byteOffset" : 1356
        },
        {
            "buffer" : 0,
            "byteLength" : 23808,
            "byteOffset" : 1428
        },
        {
            "buffer" : 0,
            "byteLength" : 23808,
            "byteOffset" : 25236
        },
        {
            "buffer" : 0,
            "byteLength" : 31744,
            "byteOffset" : 49044
        },
        {
            "buffer" : 0,
            "byteLength" : 15872,
            "byteOffset" : 80788
        },
        {
            "buffer" : 0,
            "byteLength" : 5760,
            "byteOffset" : 96660
        },
        {
            "buffer" : 0,
            "byteLength" : 2880,
            "byteOffset" : 102420
        },
        {
            "buffer" : 0,
            "byteLength" : 2880,
            "byteOffset" : 105300
        },
        {
            "buffer" : 0,
            "byteLength" : 3840,
            "byteOffset" : 108180
        },
        {
            "buffer" : 0,
            "byteLength" : 1920,
            "byteOffset" : 112020
        },
        {
            "buffer" : 0,
            "byteLength" : 480,
            "byteOffset" : 113940
        },
        {
            "buffer" : 0,
            "byteLength" : 2304,
            "byteOffset" : 114420
        },
        {
            "buffer" : 0,
            "byteLength" : 2304,
            "byteOffset" : 116724
        },
        {
            "buffer" : 0,
            "byteLength" : 1536,
            "byteOffset" : 119028
        },
        {
            "buffer" : 0,
            "byteLength" : 744,
            "byteOffset" : 120564
        },
        {
            "buffer" : 0,
            "byteLength" : 1536,
            "byteOffset" : 121308
        },
        {
            "buffer" : 0,
            "byteLength" : 1536,
            "byteOffset" : 122844
        },
        {
            "buffer" : 0,
            "byteLength" : 1024,
            "byteOffset" : 124380
        },
        {
            "buffer" : 0,
            "byteLength" : 372,
            "byteOffset" : 125404
        },
        {
            "buffer" : 0,
            "byteLength" : 27648,
            "byteOffset" : 125776
        },
        {
            "buffer" : 0,
            "byteLength" : 27648,
            "byteOffset" : 153424
        },
        {
            "buffer" : 0,
            "byteLength" : 36864,
            "byteOffset" : 181072
        },
        {
            "buffer" : 0,
            "byteLength" : 18432,
            "byteOffset" : 217936
        },
        {
            "buffer" : 0,
            "byteLength" : 6912,
            "byteOffset" : 236368
        },
        {
            "buffer" : 0,
            "byteLength" : 23592,
            "byteOffset" : 243280
        },
        {
            "buffer" : 0,
            "byteLength" : 23592,
            "byteOffset" : 266872
        },
        {
            "buffer" : 0,
            "byteLength" : 31456,
            "byteOffset" : 290464
        },
        {
            "buffer" : 0,
            "byteLength" : 15728,
            "byteOffset" : 321920
        },
        {
            "buffer" : 0,
            "byteLength" : 5808,
            "byteOffset" : 337648
        }
    ],
    "buffers" : [
        {
            "byteLength" : 343456,
            "uri" : "data:application/octet-stream;base64,"
        }
    ]
}
